<svg xmlns="http://www.w3.org/2000/svg" xmlns:xlink="http://www.w3.org/1999/xlink" width="50" zoomAndPan="magnify" viewBox="0 0 37.5 37.499999" height="50" preserveAspectRatio="xMidYMid meet" version="1.0"><defs><clipPath id="77f8e36a34"><path d="M 0 0 L 37.007812 0 L 37.007812 37.007812 L 0 37.007812 Z M 0 0 " clip-rule="nonzero"/></clipPath><clipPath id="9fcfad8aea"><path d="M 21 7.769531 L 33.304688 7.769531 L 33.304688 29.234375 L 21 29.234375 Z M 21 7.769531 " clip-rule="nonzero"/></clipPath><clipPath id="a9b5064d4d"><path d="M 3.699219 7.769531 L 16 7.769531 L 16 29.234375 L 3.699219 29.234375 Z M 3.699219 7.769531 " clip-rule="nonzero"/></clipPath><clipPath id="eff0ffdac4"><path d="M 21 7.769531 L 33.304688 7.769531 L 33.304688 29.234375 L 21 29.234375 Z M 21 7.769531 " clip-rule="nonzero"/></clipPath><clipPath id="a5b083d69f"><path d="M 3.699219 7.769531 L 16 7.769531 L 16 29.234375 L 3.699219 29.234375 Z M 3.699219 7.769531 " clip-rule="nonzero"/></clipPath></defs><g clip-path="url(#77f8e36a34)"><path fill="#ffffff" d="M 0 0 L 37.007812 0 L 37.007812 37.007812 L 0 37.007812 Z M 0 0 " fill-opacity="1" fill-rule="nonzero"/><path fill="#000000" d="M 0 0 L 37.007812 0 L 37.007812 37.007812 L 0 37.007812 Z M 0 0 " fill-opacity="1" fill-rule="nonzero"/></g><g clip-path="url(#9fcfad8aea)"><path fill="#ffffff" d="M 33.125 7.808594 L 26.394531 10.769531 C 26.371094 10.78125 26.351562 10.800781 26.34375 10.824219 L 21.78125 22.3125 C 21.773438 22.335938 21.773438 22.363281 21.78125 22.386719 L 24.648438 29.15625 C 24.683594 29.238281 24.796875 29.234375 24.828125 29.15625 L 33.253906 7.933594 C 33.285156 7.851562 33.203125 7.773438 33.125 7.808594 " fill-opacity="1" fill-rule="nonzero"/></g><g clip-path="url(#a9b5064d4d)"><path fill="#ffffff" d="M 12.359375 29.15625 L 15.226562 22.386719 C 15.234375 22.363281 15.234375 22.335938 15.226562 22.3125 L 10.667969 10.824219 C 10.65625 10.800781 10.636719 10.78125 10.613281 10.769531 L 3.886719 7.808594 C 3.804688 7.773438 3.722656 7.851562 3.753906 7.933594 L 12.179688 29.15625 C 12.210938 29.234375 12.328125 29.238281 12.359375 29.15625 " fill-opacity="1" fill-rule="nonzero"/></g><path fill="#ffffff" d="M 21.464844 12.941406 L 18.582031 14.210938 C 18.558594 14.21875 18.53125 14.21875 18.503906 14.210938 L 15.621094 12.941406 C 15.542969 12.90625 15.460938 12.984375 15.492188 13.066406 L 18.453125 20.523438 C 18.484375 20.605469 18.601562 20.605469 18.632812 20.523438 L 21.59375 13.066406 C 21.625 12.984375 21.542969 12.90625 21.464844 12.941406 " fill-opacity="1" fill-rule="nonzero"/><g clip-path="url(#eff0ffdac4)"><path fill="#ffffff" d="M 33.125 7.808594 L 26.394531 10.769531 C 26.371094 10.78125 26.351562 10.800781 26.34375 10.824219 L 21.78125 22.3125 C 21.773438 22.335938 21.773438 22.363281 21.78125 22.386719 L 24.648438 29.15625 C 24.683594 29.238281 24.796875 29.234375 24.828125 29.15625 L 33.253906 7.933594 C 33.285156 7.851562 33.203125 7.773438 33.125 7.808594 " fill-opacity="1" fill-rule="nonzero"/></g><g clip-path="url(#a5b083d69f)"><path fill="#ffffff" d="M 12.359375 29.15625 L 15.226562 22.386719 C 15.234375 22.363281 15.234375 22.335938 15.226562 22.3125 L 10.667969 10.824219 C 10.65625 10.800781 10.636719 10.78125 10.613281 10.769531 L 3.886719 7.808594 C 3.804688 7.773438 3.722656 7.851562 3.753906 7.933594 L 12.179688 29.15625 C 12.210938 29.234375 12.328125 29.238281 12.359375 29.15625 " fill-opacity="1" fill-rule="nonzero"/></g><path fill="#ffffff" d="M 21.464844 12.941406 L 18.582031 14.210938 C 18.558594 14.21875 18.53125 14.21875 18.503906 14.210938 L 15.621094 12.941406 C 15.542969 12.90625 15.460938 12.984375 15.492188 13.066406 L 18.453125 20.523438 C 18.484375 20.605469 18.601562 20.605469 18.632812 20.523438 L 21.59375 13.066406 C 21.625 12.984375 21.542969 12.90625 21.464844 12.941406 " fill-opacity="1" fill-rule="nonzero"/></svg>